<?xml version="1.0" encoding="UTF-8" standalone="no"?>
<svg xmlns:rdf="http://www.w3.org/1999/02/22-rdf-syntax-ns#" xmlns="http://www.w3.org/2000/svg" xml:space="preserve" height="176.17" width="372.25" version="1.1" xmlns:cc="http://creativecommons.org/ns#" xmlns:dc="http://purl.org/dc/elements/1.1/" viewBox="0 0 372.25031 176.1695"><path fill="#4dc4c9" d="m0 176.17h372.25v-176.17h-372.25v176.17z"/><path d="m50.853 87.086v-36.429c0-5.0453-1.224-8.8893-3.6653-11.533-2.4467-2.64-5.324-4.1387-8.636-4.4947-3.312-0.35333-6.6427 0.356-9.9947 2.1293-3.352 1.776-5.9733 4.5533-7.8653 8.34-0.16 0.23467-0.35467 0.67067-0.59067 1.3-0.23733 0.632-0.35466 1.0653-0.35466 1.3013v38.085l-7.3333 1.3013v-83.504c1.2613-0.39333 2.5013-0.74933 3.7253-1.064 1.2213-0.31466 2.4253-0.66933 3.608-1.0653v35.484c2.0507-2.84 4.4747-5.0653 7.2733-6.6827 2.7987-1.616 6.012-2.4253 9.6387-2.4253 7.0987 0 12.46 2.0693 16.088 6.2093 3.6253 4.14 5.44 9.64 5.44 16.5v35.247l-7.3333 1.3013zm65.939-50.801c-2.88-3.1933-6.2507-5.4587-10.112-6.8-3.8653-1.34-7.9653-1.7747-12.303-1.3013-4.336 0.47333-8.2973 1.8733-11.885 4.1987-3.5893 2.3267-6.5653 5.5787-8.9307 9.7587-2.3653 4.1787-3.548 9.2667-3.548 15.256 0 4.576 0.788 8.716 2.364 12.42 1.58 3.708 3.7067 6.8827 6.3893 9.52 2.6787 2.6427 5.756 4.7133 9.224 6.2107 3.4707 1.4973 7.0973 2.308 10.883 2.4253 3.784 0.11867 7.5693-0.49467 11.355-1.8333 3.7853-1.34 7.3333-3.5067 10.644-6.5053v-8.7533c-2.9973 2.5253-6.268 4.752-9.816 6.684-3.5493 1.9307-7.3333 2.8973-11.355 2.8973-2.6813 0-5.2053-0.432-7.5707-1.3013-2.3653-0.86533-4.4933-2.0707-6.3853-3.608-1.8933-1.536-3.5107-3.3893-4.8507-5.5573-1.3413-2.1693-2.3267-4.5547-2.956-7.156l44.353-14.312c-0.78933-4.968-2.6227-9.0493-5.5-12.243m-39.209 20.284c0.15866-3.9413 0.98533-7.3493 2.484-10.229 1.4973-2.8773 3.3707-5.224 5.6187-7.036 2.2467-1.8147 4.7107-3.0573 7.3933-3.728 2.6787-0.668 5.2813-0.808 7.8053-0.41334 2.5213 0.39467 4.7907 1.38 6.8013 2.956 2.0093 1.5787 3.488 3.748 4.436 6.5053l-34.539 11.945zm89.888 31.345-0.58933-6.9787c-1.8933 2.0507-4.14 3.7067-6.744 4.9667-2.6 1.26-5.32 1.8933-8.16 1.8933-5.1267 0-9.224-1.1827-12.301-3.5493-3.0733-2.3653-5.1627-5.2213-6.2653-8.5747-1.1067-3.3507-1.2253-6.86-0.356-10.525 0.86534-3.668 2.6987-6.8413 5.5013-9.5213 2.796-2.68 6.5413-4.496 11.235-5.4427 4.6893-0.94666 10.347-0.392 16.971 1.6573v-6.86c0-3.5493-1.164-6.1507-3.488-7.8067-2.3267-1.6573-5.144-2.484-8.456-2.484-3.0747 0-6.192 0.652-9.344 1.952-3.1547 1.3-5.992 2.8187-8.5147 4.5533l1.4173-8.3973c2.6813-1.42 5.4813-2.6027 8.3987-3.5493 2.916-0.94534 5.9133-1.4187 8.988-1.4187 5.0453 0 8.852 0.848 11.415 2.5427 2.5613 1.6973 4.3547 3.964 5.3827 6.8013 1.0227 2.8387 1.556 6.0533 1.5947 9.6387 0.04 3.5893 0.06 7.2747 0.06 11.06v13.837c0 4.4947 0.11867 9.0693 0.356 13.72l-7.1 2.4853zm-1.8893-28.033c-0.792-0.78667-1.716-1.4773-2.78-2.068-1.0653-0.592-2.1693-1.0453-3.3133-1.36-1.144-0.31467-2.1093-0.47467-2.8973-0.47467-2.052 0-4.08 0.29734-6.0907 0.888-2.0107 0.59067-3.8053 1.4773-5.38 2.6613-1.58 1.1813-2.8613 2.6427-3.8467 4.3747-0.98533 1.736-1.4773 3.7467-1.4773 6.0333 0 3.0747 1.024 5.54 3.0747 7.392 2.0507 1.8547 4.4747 2.9773 7.2747 3.372 2.7973 0.39333 5.6587-0.0187 8.5747-1.2427 2.9173-1.2213 5.2453-3.3307 6.9773-6.328 0.15867-0.23733 0.356-0.60933 0.59333-1.1227 0.23467-0.51333 0.35334-0.92666 0.35334-1.244 0-1.3387 0.0187-2.72 0.06-4.1387 0.0387-1.42 0.0573-2.7973 0.0573-4.14 0-0.94667-0.39333-1.8133-1.18-2.6027m46.48 19.989c-1.2613 0.39467-2.5627 0.592-3.9027 0.592-2.052 0-3.6667-0.19733-4.8493-0.592-1.1813-0.39333-2.112-1.024-2.78-1.892-0.67067-0.868-1.1067-1.9693-1.2987-3.3133-0.2-1.3387-0.29866-2.9133-0.29866-4.7293v-68.483c-1.18 0.396-2.384 0.75067-3.608 1.0653-1.2213 0.31467-2.4227 0.67067-3.6053 1.064 0 12.064-0.04 24.011-0.12 35.837-0.0787 11.828-0.0387 23.775 0.12 35.837h0.11867c0.47067 3.0773 1.5173 5.5213 3.1333 7.3347 1.6147 1.8133 3.5493 3.0947 5.796 3.844 2.2467 0.748 4.672 1.0227 7.2733 0.828 2.6027-0.19734 5.164-0.73067 7.6867-1.5973l0.12-7.2147c-1.2627 0.552-2.5253 1.0253-3.7853 1.4187m42.463 5.796c-2.92 1.1813-5.796 1.792-8.636 1.832-2.8373 0.0387-5.4013-0.492-7.6867-1.596-2.2893-1.1027-4.14-2.7787-5.56-5.0267-1.4187-2.2467-2.128-5.1453-2.128-8.692v-36.193h-11.236l0.94533-6.7427h10.171v-13.365l7.3333-5.2027v18.451h15.615v6.7413h-15.615v34.064c0 1.816 0.0987 3.3907 0.296 4.7293 0.19734 1.344 0.62934 2.4453 1.3013 3.3133 0.668 0.868 1.5973 1.4987 2.78 1.892 1.1827 0.39467 2.7973 0.592 4.8493 0.592 1.34 0 2.6627-0.19733 3.9613-0.592 1.3027-0.39333 2.5827-0.86666 3.844-1.4187l-0.23466 7.2147zm47.073 1.42v-36.429c0-5.0453-1.2253-8.8893-3.6667-11.533-2.4467-2.64-5.3227-4.1387-8.6347-4.4947-3.312-0.35333-6.644 0.356-9.9933 2.1293-3.3533 1.776-5.9747 4.5533-7.8667 8.34-0.15866 0.23467-0.35466 0.67067-0.59066 1.3-0.23734 0.632-0.35467 1.0653-0.35467 1.3013v38.085l-7.3333 1.3013v-83.504c1.26-0.39333 2.5013-0.74933 3.724-1.064 1.224-0.31466 2.4253-0.66933 3.6093-1.0653v35.484c2.048-2.84 4.4733-5.0653 7.2733-6.6827 2.7973-1.616 6.0107-2.4253 9.6387-2.4253 7.0973 0 12.459 2.0693 16.085 6.2093 3.628 4.14 5.4413 9.64 5.4413 16.5v35.247l-7.332 1.3013zm29.332 24.011-7.216-0.948 16.677-34.536-24.72-46.483 7.5707-0.70933 21.171 39.504 19.163-39.623 7.4507 0.828-40.096 81.967" fill="#fff"/><path d="m50.303 174.18v-7.2147c-2.5227 2.524-5.4787 4.4347-8.8693 5.736-3.3907 1.3013-6.86 1.9507-10.408 1.9507-4.2587 0-8.18-0.76933-11.769-2.3053-3.5893-1.5373-6.6813-3.6653-9.2853-6.3867-2.6013-2.7213-4.6533-5.8933-6.1493-9.5213-1.4987-3.6267-2.2467-7.5293-2.2467-11.709 0-4.2587 0.76933-8.22 2.3053-11.887 1.5373-3.6667 3.6453-6.8413 6.3267-9.5227 2.6813-2.6773 5.856-4.7893 9.524-6.3267 3.6653-1.5387 7.6267-2.3067 11.885-2.3067 3.4693 0 6.8013 0.632 9.996 1.8933 3.192 1.2613 6.0493 3.0747 8.5747 5.44v-31.699c1.2613-0.31467 2.5013-0.62934 3.7253-0.94534 1.22-0.31333 2.4253-0.66933 3.608-1.0653v84.923l-7.2173 0.94667zm0-37.967c0-0.47333-0.13733-1.0653-0.41333-1.7747-0.276-0.708-0.49334-1.26-0.64934-1.656-1.42-3.1507-3.392-5.596-5.9133-7.3333-2.5253-1.7333-5.284-2.8387-8.28-3.3107-2.9987-0.47467-6.0147-0.316-9.048 0.472-3.036 0.78933-5.816 2.1507-8.3387 4.0813-2.5253 1.932-4.5747 4.416-6.1493 7.452-1.58 3.0347-2.368 6.5627-2.368 10.585 0 3.784 0.75067 7.1373 2.2493 10.053 1.496 2.9173 3.4467 5.3427 5.8533 7.2733 2.4053 1.9347 5.1053 3.3533 8.104 4.2587 2.9947 0.908 5.9493 1.2213 8.8693 0.94533 2.916-0.27467 5.6773-1.1613 8.28-2.66 2.6013-1.4973 4.6893-3.7067 6.268-6.624 0.39333-0.70933 0.74933-1.4373 1.0653-2.188 0.31334-0.748 0.47067-1.556 0.47067-2.4227v-17.152zm64.639-13.069c-2.8787-3.1933-6.2507-5.46-10.112-6.8013-3.864-1.3387-7.9667-1.7733-12.301-1.3013-4.3373 0.47333-8.3 1.8747-11.887 4.1987-3.588 2.328-6.5653 5.5813-8.9307 9.7573-2.3653 4.1813-3.5467 9.2667-3.5467 15.259 0 4.5733 0.788 8.7147 2.364 12.417 1.5787 3.7093 3.7067 6.8827 6.388 9.524 2.6787 2.6427 5.7547 4.712 9.224 6.208 3.4707 1.4973 7.0987 2.3067 10.881 2.424 3.784 0.12 7.5707-0.492 11.356-1.8333 3.784-1.34 7.3333-3.5067 10.644-6.5053v-8.7507c-2.9973 2.5227-6.268 4.7493-9.8173 6.6813-3.5467 1.9347-7.332 2.8973-11.352 2.8973-2.684 0-5.2067-0.432-7.572-1.3-2.3653-0.86667-4.492-2.0693-6.3853-3.608-1.892-1.5373-3.5093-3.388-4.8507-5.5573-1.3413-2.168-2.3267-4.5547-2.9573-7.156l44.355-14.312c-0.78934-4.9667-2.6213-9.048-5.5-12.241m-39.209 20.284c0.15734-3.9427 0.98534-7.3507 2.484-10.231 1.496-2.8787 3.3707-5.2213 5.6187-7.0373 2.248-1.8133 4.7107-3.0547 7.392-3.7253 2.6813-0.67067 5.284-0.808 7.8067-0.41467 2.5227 0.396 4.7893 1.38 6.8013 2.956 2.0107 1.5787 3.488 3.7467 4.436 6.504l-34.539 11.948zm56.417 17.741c2.1293 1.8147 4.5147 3.312 7.156 4.4933 2.6413 1.184 5.3813 1.7747 8.2213 1.7747 1.4187 0 2.856-0.17733 4.316-0.53066 1.4573-0.35734 2.76-0.928 3.9027-1.7147 1.1413-0.788 2.0893-1.756 2.8373-2.8973 0.75066-1.144 1.1253-2.5427 1.1253-4.2 0-2.2853-0.72933-4.0987-2.188-5.4427-1.4587-1.3387-3.2933-2.4627-5.5-3.368-2.208-0.90667-4.5947-1.7747-7.156-2.6027-2.5627-0.828-4.9493-1.852-7.156-3.076-2.208-1.2227-4.04-2.8387-5.4987-4.8507-1.4613-2.008-2.1893-4.6707-2.1893-7.9827 0-4.0987 1.28-7.452 3.844-10.052 2.5613-2.604 5.676-4.3373 9.344-5.2053 3.6653-0.868 7.5307-0.84667 11.592 0.06 4.0587 0.90533 7.628 2.74 10.704 5.4987l-2.248 6.7413c-1.9707-1.6547-4.16-3.0733-6.564-4.2573-2.4067-1.1827-4.9093-1.7747-7.5093-1.7747-1.4213 0-2.84 0.15867-4.2587 0.47333-1.4187 0.316-2.7027 0.82934-3.8453 1.5387-1.1427 0.70933-2.0693 1.636-2.7787 2.7787-0.70933 1.144-1.064 2.5427-1.064 4.1987 0 2.2093 0.728 3.9227 2.188 5.1467 1.4573 1.224 3.2893 2.2853 5.5 3.192 2.2067 0.908 4.572 1.756 7.096 2.5427 2.5227 0.78934 4.8893 1.816 7.096 3.076 2.208 1.2627 4.04 2.9187 5.5013 4.968 1.4587 2.052 2.1867 4.7293 2.1867 8.0427 0 2.6813-0.552 5.0667-1.656 7.1547-1.104 2.0907-2.5827 3.8653-4.4347 5.3227-1.8547 1.46-3.944 2.584-6.268 3.3707-2.3267 0.788-4.712 1.1827-7.156 1.1827-3.472 0-6.7827-0.69067-9.936-2.0693-3.1547-1.3773-5.9947-3.212-8.5133-5.5l3.3093-6.032zm55.532-57.129c-0.90933 0.712-1.9533 1.0667-3.136 1.0667-1.104 0-2.112-0.37333-3.0147-1.124-0.90667-0.748-1.3627-1.8333-1.3627-3.252 0-1.4973 0.456-2.6027 1.3627-3.312 0.90266-0.70933 1.9107-1.0653 3.0147-1.0653 1.1827 0 2.2267 0.37466 3.136 1.124 0.904 0.75066 1.3573 1.8333 1.3573 3.2533 0 1.4973-0.45334 2.6013-1.3573 3.3093m-6.328 69.903v-56.891c1.1813-0.39333 2.384-0.788 3.6053-1.1813 1.224-0.39467 2.4253-0.788 3.608-1.184v57.956l-7.2133 1.3zm49.556-48.611c-1.0267-0.948-1.9933-1.7347-2.8973-2.3653-0.908-0.62933-2.1107-0.94667-3.6093-0.94667-1.8893 0-3.8253 0.63067-5.796 1.8933-1.9707 1.2613-3.7453 2.8387-5.32 4.7307-1.58 1.8933-2.88 3.9227-3.904 6.0893-1.0267 2.172-1.536 4.1227-1.536 5.8547v32.055l-7.3333 1.3v-57.481l7.3333-1.0653v12.301c1.18-2.128 2.8173-4.2587 4.9067-6.3867 2.0893-2.1293 4.356-3.804 6.8013-5.028 2.4427-1.22 4.9667-1.7733 7.5707-1.656 2.6013 0.12 5.044 1.36 7.332 3.728l-3.548 6.9773zm56.831-2.188c-2.8813-3.1933-6.2507-5.46-10.112-6.8013-3.8653-1.3387-7.9653-1.7733-12.303-1.3013-4.3373 0.47333-8.3 1.8747-11.885 4.1987-3.5893 2.328-6.5653 5.5813-8.9307 9.7573-2.3653 4.1813-3.548 9.2667-3.548 15.259 0 4.5733 0.78534 8.7147 2.3653 12.417 1.576 3.7093 3.7053 6.8827 6.3853 9.524 2.6813 2.6427 5.756 4.712 9.2267 6.208 3.4707 1.4973 7.0947 2.3067 10.881 2.424 3.7853 0.12 7.5693-0.492 11.356-1.8333 3.784-1.34 7.3333-3.5067 10.644-6.5053v-8.7507c-2.9987 2.5227-6.2693 4.7493-9.816 6.6813-3.5493 1.9347-7.3333 2.8973-11.355 2.8973-2.6827 0-5.2053-0.432-7.5707-1.3-2.3653-0.86667-4.496-2.0693-6.3867-3.608-1.8933-1.5373-3.5093-3.388-4.8493-5.5573-1.3427-2.168-2.328-4.5547-2.9587-7.156l44.356-14.312c-0.78934-4.9667-2.6227-9.048-5.5-12.241m-39.211 20.284c0.15867-3.9427 0.98534-7.3507 2.4867-10.231 1.496-2.8787 3.3693-5.2213 5.616-7.0373 2.248-1.8133 4.712-3.0547 7.392-3.7253 2.68-0.67067 5.2813-0.808 7.808-0.41467 2.5213 0.396 4.7893 1.38 6.8 2.956 2.0107 1.5787 3.488 3.7467 4.4347 6.504l-34.537 11.948zm56.419 17.741c2.128 1.8147 4.512 3.312 7.1547 4.4933 2.6413 1.184 5.3827 1.7747 8.22 1.7747 1.42 0 2.856-0.17733 4.3173-0.53066 1.4587-0.35734 2.7587-0.928 3.904-1.7147 1.1427-0.788 2.088-1.756 2.84-2.8973 0.748-1.144 1.1227-2.5427 1.1227-4.2 0-2.2853-0.73066-4.0987-2.188-5.4427-1.46-1.3387-3.2947-2.4627-5.5-3.368-2.2107-0.90667-4.5947-1.7747-7.1573-2.6027-2.5627-0.828-4.9493-1.852-7.1547-3.076-2.208-1.2227-4.0427-2.8387-5.5-4.8507-1.46-2.008-2.188-4.6707-2.188-7.9827 0-4.0987 1.28-7.452 3.844-10.052 2.5627-2.604 5.6773-4.3373 9.344-5.2053s7.528-0.84667 11.591 0.06c4.06 0.90533 7.6293 2.74 10.704 5.4987l-2.2467 6.7413c-1.9733-1.6547-4.16-3.0733-6.564-4.2573-2.4067-1.1827-4.9107-1.7747-7.512-1.7747-1.4187 0-2.84 0.15867-4.2573 0.47333-1.42 0.316-2.7013 0.82934-3.844 1.5387-1.1453 0.70933-2.072 1.636-2.78 2.7787-0.70933 1.144-1.064 2.5427-1.064 4.1987 0 2.2093 0.728 3.9227 2.188 5.1467 1.4587 1.224 3.292 2.2853 5.5 3.192 2.2067 0.908 4.5733 1.756 7.0973 2.5427 2.5213 0.78934 4.888 1.816 7.0947 3.076 2.2093 1.2627 4.0427 2.9187 5.5 4.968 1.4587 2.052 2.188 4.7293 2.188 8.0427 0 2.6813-0.552 5.0667-1.6547 7.1547-1.104 2.0907-2.584 3.8653-4.4347 5.3227-1.8547 1.46-3.944 2.584-6.2693 3.3707-2.328 0.788-4.7147 1.1827-7.156 1.1827-3.4707 0-6.7813-0.69067-9.9347-2.0693-3.156-1.3773-5.9933-3.212-8.5173-5.5l3.3133-6.032" fill="#fff"/></svg>
