<?xml version="1.0" encoding="UTF-8" standalone="no"?>
<svg
   xmlns:dc="http://purl.org/dc/elements/1.1/"
   xmlns:cc="http://creativecommons.org/ns#"
   xmlns:rdf="http://www.w3.org/1999/02/22-rdf-syntax-ns#"
   xmlns:svg="http://www.w3.org/2000/svg"
   xmlns="http://www.w3.org/2000/svg"
   viewBox="0 0 1152 818.66669"
   height="818.66669"
   width="1152"
   xml:space="preserve"
   version="1.1"
   id="svg2"><metadata
     id="metadata8"><rdf:RDF><cc:Work
         rdf:about=""><dc:format>image/svg+xml</dc:format><dc:type
           rdf:resource="http://purl.org/dc/dcmitype/StillImage" /></cc:Work></rdf:RDF></metadata><defs
     id="defs6" /><g
     transform="matrix(1.3333333,0,0,-1.3333333,0,818.66667)"
     id="g10"><g
       transform="scale(0.1)"
       id="g12"><path
         id="path14"
         style="fill:#4dc4c9;fill-opacity:1;fill-rule:nonzero;stroke:none"
         d="m 0,0 8640,0 0,6140 L 0,6140 0,0 Z" /><path
         id="path16"
         style="fill:#ffffff;fill-opacity:1;fill-rule:nonzero;stroke:none"
         d="m 4884.75,2847.74 0,273.22 c 0,37.84 -9.18,66.67 -27.49,86.5 -18.35,19.8 -39.93,31.04 -64.77,33.71 -24.84,2.65 -49.82,-2.67 -74.96,-15.97 -25.14,-13.32 -44.8,-34.15 -58.99,-62.55 -1.2,-1.76 -2.66,-5.03 -4.43,-9.75 -1.78,-4.74 -2.66,-7.99 -2.66,-9.76 l 0,-285.64 -55,-9.76 0,626.28 c 9.46,2.95 18.76,5.62 27.94,7.98 9.16,2.36 18.19,5.02 27.06,7.99 l 0,-266.13 c 15.38,21.3 33.56,37.99 54.55,50.12 20.99,12.12 45.09,18.19 72.29,18.19 53.24,0 93.45,-15.52 120.66,-46.57 27.19,-31.05 40.8,-72.3 40.8,-123.75 l 0,-264.35 -55,-9.76 z m 494.54,381.01 c -21.6,23.95 -46.88,40.94 -75.84,51 -28.99,10.05 -59.74,13.31 -92.27,9.76 -32.52,-3.55 -62.23,-14.05 -89.14,-31.49 -26.92,-17.45 -49.24,-41.84 -66.98,-73.19 -17.74,-31.34 -26.61,-69.5 -26.61,-114.42 0,-34.32 5.91,-65.37 17.73,-93.15 11.85,-27.81 27.8,-51.62 47.92,-71.4 20.09,-19.82 43.17,-35.35 69.18,-46.58 26.03,-11.23 53.23,-17.31 81.62,-18.19 28.38,-0.89 56.77,3.71 85.16,13.75 28.39,10.05 55,26.3 79.83,48.79 l 0,65.65 c -22.48,-18.94 -47.01,-35.64 -73.62,-50.13 -26.62,-14.48 -55,-21.73 -85.16,-21.73 -20.11,0 -39.04,3.24 -56.78,9.76 -17.74,6.49 -33.7,15.53 -47.89,27.06 -14.2,11.52 -26.33,25.42 -36.38,41.68 -10.06,16.27 -17.45,34.16 -22.17,53.67 l 332.65,107.34 c -5.92,37.26 -19.67,67.87 -41.25,91.82 m -294.07,-152.13 c 1.19,29.56 7.39,55.12 18.63,76.72 11.23,21.58 25.28,39.18 42.14,52.77 16.85,13.61 35.33,22.93 55.45,27.96 20.09,5.01 39.61,6.06 58.54,3.1 18.91,-2.96 35.93,-10.35 51.01,-22.17 15.07,-11.84 26.16,-28.11 33.27,-48.79 l -259.04,-89.59 z m 674.16,-235.09 -4.42,52.34 c -14.2,-15.38 -31.05,-27.8 -50.58,-37.25 -19.5,-9.45 -39.9,-14.2 -61.2,-14.2 -38.45,0 -69.18,8.87 -92.26,26.62 -23.05,17.74 -38.72,39.16 -46.99,64.31 -8.3,25.13 -9.19,51.45 -2.67,78.94 6.49,27.51 20.24,51.31 41.26,71.41 20.97,20.1 49.06,33.72 84.26,40.82 35.17,7.1 77.6,2.94 127.28,-12.43 l 0,51.45 c 0,26.62 -8.73,46.13 -26.16,58.55 -17.45,12.43 -38.58,18.63 -63.42,18.63 -23.06,0 -46.44,-4.89 -70.08,-14.64 -23.66,-9.75 -44.94,-21.14 -63.86,-34.15 l 10.63,62.98 c 20.11,10.65 41.11,19.52 62.99,26.62 21.87,7.09 44.35,10.64 67.41,10.64 37.84,0 66.39,-6.36 85.61,-19.07 19.21,-12.73 32.66,-29.73 40.37,-51.01 7.67,-21.29 11.67,-45.4 11.96,-72.29 0.3,-26.92 0.45,-54.56 0.45,-82.95 l 0,-103.78 c 0,-33.71 0.89,-68.02 2.67,-102.9 l -53.25,-18.64 z m -14.17,210.25 c -5.94,5.9 -12.87,11.08 -20.85,15.51 -7.99,4.44 -16.27,7.84 -24.85,10.2 -8.58,2.36 -15.82,3.56 -21.73,3.56 -15.39,0 -30.6,-2.23 -45.68,-6.66 -15.08,-4.43 -28.54,-11.08 -40.35,-19.96 -11.85,-8.86 -21.46,-19.82 -28.85,-32.81 -7.39,-13.02 -11.08,-28.1 -11.08,-45.25 0,-23.06 7.68,-41.55 23.06,-55.44 15.38,-13.91 33.56,-22.33 54.56,-25.29 20.98,-2.95 42.44,0.14 64.31,9.32 21.88,9.16 39.34,24.98 52.33,47.46 1.19,1.78 2.67,4.57 4.45,8.42 1.76,3.85 2.65,6.95 2.65,9.33 0,10.04 0.14,20.4 0.45,31.04 0.29,10.65 0.43,20.98 0.43,31.05 0,7.1 -2.95,13.6 -8.85,19.52 m 348.6,-149.92 c -9.46,-2.96 -19.22,-4.44 -29.27,-4.44 -15.39,0 -27.5,1.48 -36.37,4.44 -8.86,2.95 -15.84,7.68 -20.85,14.19 -5.03,6.51 -8.3,14.77 -9.74,24.85 -1.5,10.04 -2.24,21.85 -2.24,35.47 l 0,513.62 c -8.85,-2.97 -17.88,-5.63 -27.06,-7.99 -9.16,-2.36 -18.17,-5.03 -27.04,-7.98 0,-90.48 -0.3,-180.08 -0.9,-268.78 -0.59,-88.71 -0.29,-178.31 0.9,-268.78 l 0.89,0 c 3.53,-23.08 11.38,-41.41 23.5,-55.01 12.11,-13.6 26.62,-23.21 43.47,-28.83 16.85,-5.61 35.04,-7.67 54.55,-6.21 19.52,1.48 38.73,5.48 57.65,11.98 l 0.9,54.11 c -9.47,-4.14 -18.94,-7.69 -28.39,-10.64 m 318.47,-43.47 c -21.9,-8.86 -43.47,-13.44 -64.77,-13.74 -21.28,-0.29 -40.51,3.69 -57.65,11.97 -17.17,8.27 -31.05,20.84 -41.7,37.7 -10.64,16.85 -15.96,38.59 -15.96,65.19 l 0,271.45 -84.27,0 7.09,50.57 76.28,0 0,100.24 55,39.02 0,-138.38 117.11,0 0,-50.56 -117.11,0 0,-255.48 c 0,-13.62 0.74,-25.43 2.22,-35.47 1.48,-10.08 4.72,-18.34 9.76,-24.85 5.01,-6.51 11.98,-11.24 20.85,-14.19 8.87,-2.96 20.98,-4.44 36.37,-4.44 10.05,0 19.97,1.48 29.71,4.44 9.77,2.95 19.37,6.5 28.83,10.64 l -1.76,-54.11 z m 353.05,-10.65 0,273.22 c 0,37.84 -9.19,66.67 -27.5,86.5 -18.35,19.8 -39.92,31.04 -64.76,33.71 -24.84,2.65 -49.83,-2.67 -74.95,-15.97 -25.15,-13.32 -44.81,-34.15 -59,-62.55 -1.19,-1.76 -2.66,-5.03 -4.43,-9.75 -1.78,-4.74 -2.66,-7.99 -2.66,-9.76 l 0,-285.64 -55,-9.76 0,626.28 c 9.45,2.95 18.76,5.62 27.93,7.98 9.18,2.36 18.19,5.02 27.07,7.99 l 0,-266.13 c 15.36,21.3 33.55,37.99 54.55,50.12 20.98,12.12 45.08,18.19 72.29,18.19 53.23,0 93.44,-15.52 120.64,-46.57 27.21,-31.05 40.81,-72.3 40.81,-123.75 l 0,-264.35 -54.99,-9.76 z m 219.99,-180.08 -54.12,7.11 125.08,259.02 -185.4,348.62 56.78,5.32 158.78,-296.28 143.72,297.17 55.88,-6.21 -300.72,-614.75" /><path
         id="path18"
         style="fill:#ffffff;fill-opacity:1;fill-rule:nonzero;stroke:none"
         d="m 4880.66,2194.52 0,54.11 c -18.92,-18.93 -41.09,-33.26 -66.52,-43.02 -25.43,-9.76 -51.45,-14.63 -78.06,-14.63 -31.94,0 -61.35,5.77 -88.27,17.29 -26.92,11.53 -50.11,27.49 -69.64,47.9 -19.51,20.41 -34.9,44.2 -46.12,71.41 -11.24,27.2 -16.85,56.47 -16.85,87.82 0,31.94 5.77,61.65 17.29,89.15 11.53,27.5 27.34,51.31 47.45,71.42 20.11,20.08 43.92,35.92 71.43,47.45 27.49,11.54 57.2,17.3 89.14,17.3 26.02,0 51.01,-4.74 74.97,-14.2 23.94,-9.46 45.37,-23.06 64.31,-40.8 l 0,237.74 c 9.46,2.36 18.76,4.72 27.94,7.09 9.15,2.35 18.19,5.02 27.06,7.99 l 0,-636.92 -54.13,-7.1 z m 0,284.75 c 0,3.55 -1.03,7.99 -3.1,13.31 -2.07,5.31 -3.7,9.45 -4.87,12.42 -10.65,23.63 -25.44,41.97 -44.35,55 -18.94,13 -39.63,21.29 -62.1,24.83 -22.49,3.56 -45.11,2.37 -67.86,-3.54 -22.77,-5.92 -43.62,-16.13 -62.54,-30.61 -18.94,-14.49 -34.31,-33.12 -46.12,-55.89 -11.85,-22.76 -17.76,-49.22 -17.76,-79.39 0,-28.38 5.63,-53.53 16.87,-75.4 11.22,-21.88 25.85,-40.07 43.9,-54.55 18.04,-14.51 38.29,-25.15 60.78,-31.94 22.46,-6.81 44.62,-9.16 66.52,-7.09 21.87,2.06 42.58,8.71 62.1,19.95 19.51,11.23 35.17,27.8 47.01,49.68 2.95,5.32 5.62,10.78 7.99,16.41 2.35,5.61 3.53,11.67 3.53,18.17 l 0,128.64 z m 484.79,98.02 c -21.59,23.95 -46.88,40.95 -75.84,51.01 -28.98,10.04 -59.75,13.3 -92.26,9.76 -32.53,-3.55 -62.25,-14.06 -89.15,-31.49 -26.91,-17.46 -49.24,-41.86 -66.98,-73.18 -17.74,-31.36 -26.6,-69.5 -26.6,-114.44 0,-34.3 5.91,-65.36 17.73,-93.13 11.84,-27.82 27.8,-51.62 47.91,-71.43 20.09,-19.82 43.16,-35.34 69.18,-46.56 26.03,-11.23 53.24,-17.3 81.61,-18.18 28.38,-0.9 56.78,3.69 85.17,13.75 28.38,10.05 55,26.3 79.83,48.79 l 0,65.63 c -22.48,-18.92 -47.01,-35.62 -73.63,-50.11 -26.6,-14.51 -54.99,-21.73 -85.14,-21.73 -20.13,0 -39.05,3.24 -56.79,9.75 -17.74,6.5 -33.69,15.52 -47.89,27.06 -14.19,11.53 -26.32,25.41 -36.38,41.68 -10.06,16.26 -17.45,34.16 -22.18,53.67 l 332.66,107.34 c -5.92,37.25 -19.66,67.86 -41.25,91.81 m -294.07,-152.13 c 1.18,29.57 7.39,55.13 18.63,76.73 11.22,21.59 25.28,39.16 42.14,52.78 16.86,13.6 35.33,22.91 55.44,27.94 20.11,5.03 39.63,6.06 58.55,3.11 18.92,-2.97 35.92,-10.35 51.01,-22.17 15.08,-11.84 26.16,-28.1 33.27,-48.78 l -259.04,-89.61 z m 423.13,-133.06 c 15.97,-13.61 33.86,-24.84 53.67,-33.7 19.81,-8.88 40.36,-13.31 61.66,-13.31 10.64,0 21.42,1.33 32.37,3.98 10.93,2.68 20.7,6.96 29.27,12.86 8.56,5.91 15.67,13.17 21.28,21.73 5.63,8.58 8.44,19.07 8.44,31.5 0,17.14 -5.47,30.74 -16.41,40.82 -10.94,10.04 -24.7,18.47 -41.25,25.26 -16.56,6.8 -34.46,13.31 -53.67,19.52 -19.22,6.21 -37.12,13.89 -53.67,23.07 -16.56,9.17 -30.3,21.29 -41.24,36.38 -10.96,15.06 -16.42,35.03 -16.42,59.87 0,30.74 9.6,55.89 28.83,75.39 19.21,19.53 42.57,32.53 70.08,39.04 27.49,6.51 56.48,6.35 86.94,-0.45 30.44,-6.79 57.21,-20.55 80.28,-41.24 l -16.86,-50.56 c -14.78,12.41 -31.2,23.05 -49.23,31.93 -18.05,8.87 -36.82,13.31 -56.32,13.31 -10.66,0 -21.3,-1.19 -31.94,-3.55 -10.64,-2.37 -20.27,-6.22 -28.84,-11.54 -8.57,-5.32 -15.52,-12.27 -20.84,-20.84 -5.32,-8.58 -7.98,-19.07 -7.98,-31.49 0,-16.57 5.46,-29.42 16.41,-38.6 10.93,-9.18 24.67,-17.14 41.25,-23.94 16.55,-6.81 34.29,-13.17 53.22,-19.07 18.92,-5.92 36.67,-13.62 53.22,-23.07 16.56,-9.47 30.3,-21.89 41.26,-37.26 10.94,-15.39 16.4,-35.47 16.4,-60.32 0,-20.11 -4.14,-38 -12.42,-53.66 -8.28,-15.68 -19.37,-28.99 -33.26,-39.92 -13.91,-10.95 -29.58,-19.38 -47.01,-25.28 -17.45,-5.91 -35.34,-8.87 -53.67,-8.87 -26.04,0 -50.87,5.18 -74.52,15.52 -23.66,10.33 -44.96,24.09 -63.85,41.25 l 24.82,45.24 z M 5911,2720.57 c -6.82,-5.34 -14.65,-8 -23.52,-8 -8.28,0 -15.84,2.8 -22.61,8.43 -6.8,5.61 -10.22,13.75 -10.22,24.39 0,11.23 3.42,19.52 10.22,24.84 6.77,5.32 14.33,7.99 22.61,7.99 8.87,0 16.7,-2.81 23.52,-8.43 6.78,-5.63 10.18,-13.75 10.18,-24.4 0,-11.23 -3.4,-19.51 -10.18,-24.82 m -47.46,-524.27 0,426.68 c 8.86,2.95 17.88,5.91 27.04,8.86 9.18,2.96 18.19,5.91 27.06,8.88 l 0,-434.67 -54.1,-9.75 z m 371.67,364.58 c -7.7,7.11 -14.95,13.01 -21.73,17.74 -6.81,4.72 -15.83,7.1 -27.07,7.1 -14.17,0 -28.69,-4.73 -43.47,-14.2 -14.78,-9.46 -28.09,-21.29 -39.9,-35.48 -11.85,-14.2 -21.6,-29.42 -29.28,-45.67 -7.7,-16.29 -11.52,-30.92 -11.52,-43.91 l 0,-240.41 -55,-9.75 0,431.11 55,7.99 0,-92.26 c 8.85,15.96 21.13,31.94 36.8,47.9 15.67,15.97 32.67,28.53 51.01,37.71 18.32,9.15 37.25,13.3 56.78,12.42 19.51,-0.9 37.83,-10.2 54.99,-27.96 l -26.61,-52.33 z m 426.23,16.41 c -21.61,23.95 -46.88,40.95 -75.84,51.01 -28.99,10.04 -59.74,13.3 -92.27,9.76 -32.53,-3.55 -62.25,-14.06 -89.14,-31.49 -26.92,-17.46 -49.24,-41.86 -66.98,-73.18 -17.74,-31.36 -26.61,-69.5 -26.61,-114.44 0,-34.3 5.89,-65.36 17.74,-93.13 11.82,-27.82 27.79,-51.62 47.89,-71.43 20.11,-19.82 43.17,-35.34 69.2,-46.56 26.03,-11.23 53.21,-17.3 81.61,-18.18 28.39,-0.9 56.77,3.69 85.17,13.75 28.38,10.05 55,26.3 79.83,48.79 l 0,65.63 c -22.49,-18.92 -47.02,-35.62 -73.62,-50.11 -26.62,-14.51 -55,-21.73 -85.16,-21.73 -20.12,0 -39.04,3.24 -56.78,9.75 -17.74,6.5 -33.72,15.52 -47.9,27.06 -14.2,11.53 -26.32,25.41 -36.37,41.68 -10.07,16.26 -17.46,34.16 -22.19,53.67 l 332.67,107.34 c -5.92,37.25 -19.67,67.86 -41.25,91.81 m -294.08,-152.13 c 1.19,29.57 7.39,55.13 18.65,76.73 11.22,21.59 25.27,39.16 42.12,52.78 16.86,13.6 35.34,22.91 55.44,27.94 20.1,5.03 39.61,6.06 58.56,3.11 18.91,-2.97 35.92,-10.35 51,-22.17 15.08,-11.84 26.16,-28.1 33.26,-48.78 l -259.03,-89.61 z M 6790.5,2292.1 c 15.96,-13.61 33.84,-24.84 53.66,-33.7 19.81,-8.88 40.37,-13.31 61.65,-13.31 10.65,0 21.42,1.33 32.38,3.98 10.94,2.68 20.69,6.96 29.28,12.86 8.57,5.91 15.66,13.17 21.3,21.73 5.61,8.58 8.42,19.07 8.42,31.5 0,17.14 -5.48,30.74 -16.41,40.82 -10.95,10.04 -24.71,18.47 -41.25,25.26 -16.58,6.8 -34.46,13.31 -53.68,19.52 -19.22,6.21 -37.12,13.89 -53.66,23.07 -16.56,9.17 -30.32,21.29 -41.25,36.38 -10.95,15.06 -16.41,35.03 -16.41,59.87 0,30.74 9.6,55.89 28.83,75.39 19.22,19.53 42.58,32.53 70.08,39.04 27.5,6.51 56.46,6.35 86.93,-0.45 30.45,-6.79 57.22,-20.55 80.28,-41.24 l -16.85,-50.56 c -14.8,12.41 -31.2,23.05 -49.23,31.93 -18.05,8.87 -36.83,13.31 -56.34,13.31 -10.64,0 -21.3,-1.19 -31.93,-3.55 -10.65,-2.37 -20.26,-6.22 -28.83,-11.54 -8.59,-5.32 -15.54,-12.27 -20.85,-20.84 -5.32,-8.58 -7.98,-19.07 -7.98,-31.49 0,-16.57 5.46,-29.42 16.41,-38.6 10.94,-9.18 24.69,-17.14 41.25,-23.94 16.55,-6.81 34.3,-13.17 53.23,-19.07 18.91,-5.92 36.66,-13.62 53.21,-23.07 16.57,-9.47 30.32,-21.89 41.25,-37.26 10.94,-15.39 16.41,-35.47 16.41,-60.32 0,-20.11 -4.14,-38 -12.41,-53.66 -8.28,-15.68 -19.38,-28.99 -33.26,-39.92 -13.91,-10.95 -29.58,-19.38 -47.02,-25.28 -17.46,-5.91 -35.36,-8.87 -53.67,-8.87 -26.03,0 -50.86,5.18 -74.51,15.52 -23.67,10.33 -44.95,24.09 -63.88,41.25 l 24.85,45.24" /><path
         id="path20"
         style="fill:#ffffff;fill-opacity:1;fill-rule:nonzero;stroke:none"
         d="m 2617.2,4225.78 c -654.38,0 -1186.76,-532.39 -1186.76,-1186.78 0,-654.37 532.38,-1186.74 1186.76,-1186.74 654.38,0 1186.76,532.37 1186.76,1186.74 0,654.39 -532.38,1186.78 -1186.76,1186.78 z m 0,-2446.65 c -694.7,0 -1259.87,565.19 -1259.87,1259.87 0,694.71 565.17,1259.9 1259.87,1259.9 694.7,0 1259.88,-565.19 1259.88,-1259.9 0,-694.68 -565.18,-1259.87 -1259.88,-1259.87" /><path
         id="path22"
         style="fill:#ffffff;fill-opacity:1;fill-rule:nonzero;stroke:none"
         d="m 2402.72,2850.14 0,400.38 c 0,55.44 -13.45,97.69 -40.29,126.73 -26.88,29.03 -58.51,45.5 -94.9,49.4 -36.4,3.91 -73.02,-3.9 -109.84,-23.39 -36.85,-19.51 -65.66,-50.05 -86.45,-91.65 -1.75,-2.6 -3.9,-7.38 -6.5,-14.3 -2.61,-6.95 -3.9,-11.69 -3.9,-14.29 l 0,-418.59 -80.6,-14.29 0,917.75 c 13.85,4.32 27.51,8.21 40.96,11.7 13.41,3.45 26.63,7.35 39.64,11.69 l 0,-389.98 c 22.53,31.2 49.16,55.67 79.94,73.45 30.75,17.75 66.07,26.65 105.94,26.65 78,0 136.93,-22.75 176.8,-68.25 39.84,-45.5 59.8,-105.94 59.8,-181.33 l 0,-387.39 -80.6,-14.29 z m 772.15,-2.6 0,79.3 c -27.75,-27.76 -60.24,-48.75 -97.49,-63.05 -37.27,-14.3 -75.39,-21.45 -114.39,-21.45 -46.81,0 -89.92,8.44 -129.35,25.35 -39.44,16.9 -73.44,40.29 -102.05,70.2 -28.6,29.88 -51.14,64.77 -67.6,104.63 -16.47,39.85 -24.69,82.74 -24.69,128.69 0,46.81 8.45,90.35 25.36,130.65 16.89,40.3 40.06,75.18 69.53,104.64 29.45,29.46 64.35,52.66 104.65,69.54 40.3,16.91 83.84,25.36 130.64,25.36 38.13,0 74.76,-6.95 109.84,-20.79 35.1,-13.88 66.51,-33.8 94.25,-59.8 l 0,348.37 c 13.86,3.46 27.51,6.92 40.96,10.41 13.42,3.45 26.64,7.35 39.64,11.69 l 0,-933.35 -79.3,-10.39 z m 0,417.27 c 0,5.19 -1.52,11.7 -4.55,19.5 -3.04,7.81 -5.42,13.85 -7.15,18.19 -15.59,34.66 -37.27,61.53 -64.99,80.61 -27.75,19.04 -58.07,31.2 -91,36.39 -32.94,5.21 -66.1,3.46 -99.44,-5.19 -33.37,-8.68 -63.92,-23.62 -91.65,-44.86 -27.75,-21.24 -50.26,-48.53 -67.59,-81.89 -17.35,-33.37 -26,-72.14 -26,-116.35 0,-41.59 8.23,-78.44 24.7,-110.49 16.44,-32.07 37.89,-58.73 64.34,-79.94 26.43,-21.25 56.11,-36.85 89.05,-46.8 32.93,-9.98 65.42,-13.44 97.5,-10.4 32.05,3.02 62.39,12.78 90.98,29.25 28.6,16.47 51.56,40.72 68.91,72.79 4.32,7.81 8.22,15.81 11.7,24.05 3.45,8.23 5.19,17.11 5.19,26.65 l 0,188.49" /><path
         id="path24"
         style="fill:#ffffff;fill-opacity:1;fill-rule:nonzero;stroke:none"
         d="m 1975.18,2626.07 c 54.56,-70.27 116.45,-129.28 185.68,-177.04 69.23,-47.71 142.42,-83.12 219.51,-106.21 77.11,-23.06 156.05,-34.62 236.83,-34.62 80.77,0 159.72,11.8 236.82,35.41 77.11,23.61 150.28,59.02 219.53,106.21 69.23,47.22 131.12,105.98 185.68,176.25 l 47.2,-62.95 c -55.6,-77.61 -120.37,-142.64 -194.33,-195.11 -73.96,-52.45 -152.92,-91.53 -236.83,-117.24 -83.94,-25.69 -169.95,-38.55 -258.07,-38.55 -88.11,0 -174.15,12.86 -258.06,38.55 -83.95,25.71 -162.88,64.79 -236.83,117.24 -73.96,52.47 -138.73,117.5 -194.33,195.11 l 47.2,62.95" /></g></g></svg>