<?xml version="1.0" encoding="UTF-8" standalone="no"?>
<svg
   xmlns:dc="http://purl.org/dc/elements/1.1/"
   xmlns:cc="http://creativecommons.org/ns#"
   xmlns:rdf="http://www.w3.org/1999/02/22-rdf-syntax-ns#"
   xmlns:svg="http://www.w3.org/2000/svg"
   xmlns="http://www.w3.org/2000/svg"
   xmlns:sodipodi="http://sodipodi.sourceforge.net/DTD/sodipodi-0.dtd"
   xmlns:inkscape="http://www.inkscape.org/namespaces/inkscape"
   viewBox="0 0 830 375.36701"
   height="375.367"
   width="830"
   xml:space="preserve"
   version="1.1"
   id="svg2"
   inkscape:version="0.91 r13725"
   sodipodi:docname="HealthyDesires_Logo_Reversed_small.svg"
   inkscape:export-filename="E:\Jekyll\healthydesires.com.au\images\healthy-desires-logo-resized.png"
   inkscape:export-xdpi="17.57"
   inkscape:export-ydpi="17.57"><sodipodi:namedview
     pagecolor="#ffffff"
     bordercolor="#666666"
     borderopacity="1"
     objecttolerance="10"
     gridtolerance="10"
     guidetolerance="10"
     inkscape:pageopacity="0"
     inkscape:pageshadow="2"
     inkscape:window-width="2560"
     inkscape:window-height="1018"
     id="namedview13"
     showgrid="false"
     inkscape:snap-grids="true"
     inkscape:snap-page="true"
     fit-margin-top="0"
     fit-margin-left="0"
     fit-margin-right="0"
     fit-margin-bottom="0"
     inkscape:zoom="2.2617865"
     inkscape:cx="415"
     inkscape:cy="187.6835"
     inkscape:window-x="-8"
     inkscape:window-y="-8"
     inkscape:window-maximized="1"
     inkscape:current-layer="svg2" /><metadata
     id="metadata8"><rdf:RDF><cc:Work
         rdf:about=""><dc:format>image/svg+xml</dc:format><dc:type
           rdf:resource="http://purl.org/dc/dcmitype/StillImage" /><dc:title /></cc:Work></rdf:RDF></metadata><defs
     id="defs6" /><path
     id="path14"
     style="fill:#00b3be;fill-opacity:1;fill-rule:nonzero;stroke:none"
     d="m 0,375.367 830,0 L 830,0 0,0 0,375.367 Z"
     inkscape:connector-curvature="0"
     inkscape:export-filename="E:\Jekyll\healthydesires.com.au\images\healthy-desires-logo-resized.png"
     inkscape:export-xdpi="17.57"
     inkscape:export-ydpi="17.57" /><path
     id="path16"
     style="fill:#ffffff;fill-opacity:1;fill-rule:nonzero;stroke:none"
     d="m 492.29998,212.66834 0,-36.42933 c 0,-5.04533 -1.224,-8.88933 -3.66533,-11.53333 -2.44667,-2.64 -5.324,-4.13867 -8.636,-4.49467 -3.312,-0.35333 -6.64267,0.356 -9.99467,2.12933 -3.352,1.776 -5.97333,4.55334 -7.86533,8.34 -0.16,0.23467 -0.35467,0.67067 -0.59067,1.3 -0.23733,0.632 -0.35466,1.06534 -0.35466,1.30134 l 0,38.08533 -7.33334,1.30133 0,-83.504 c 1.26134,-0.39333 2.50134,-0.74933 3.72534,-1.064 1.22133,-0.31466 2.42533,-0.66933 3.608,-1.06533 l 0,35.484 c 2.05066,-2.84 4.47466,-5.06533 7.27333,-6.68267 2.79867,-1.616 6.012,-2.42533 9.63867,-2.42533 7.09866,0 12.46,2.06933 16.088,6.20933 3.62533,4.14 5.44,9.64 5.44,16.5 l 0,35.24667 -7.33334,1.30133 z m 65.93867,-50.80133 c -2.88,-3.19333 -6.25067,-5.45867 -10.112,-6.8 -3.86533,-1.34 -7.96533,-1.77467 -12.30267,-1.30133 -4.336,0.47333 -8.29733,1.87333 -11.88533,4.19866 -3.58933,2.32667 -6.56533,5.57867 -8.93067,9.75867 -2.36533,4.17867 -3.548,9.26667 -3.548,15.256 0,4.576 0.788,8.716 2.364,12.42 1.58,3.708 3.70667,6.88267 6.38934,9.52 2.67866,2.64267 5.756,4.71333 9.224,6.21067 3.47066,1.49733 7.09733,2.308 10.88266,2.42533 3.784,0.11867 7.56934,-0.49467 11.35467,-1.83333 3.78533,-1.34 7.33333,-3.50667 10.644,-6.50534 l 0,-8.75333 c -2.99733,2.52533 -6.268,4.752 -9.816,6.684 -3.54933,1.93067 -7.33333,2.89733 -11.35467,2.89733 -2.68133,0 -5.20533,-0.432 -7.57066,-1.30133 -2.36534,-0.86533 -4.49334,-2.07067 -6.38534,-3.608 -1.89333,-1.536 -3.51066,-3.38933 -4.85066,-5.55733 -1.34134,-2.16934 -2.32667,-4.55467 -2.956,-7.156 l 44.35333,-14.312 c -0.78933,-4.968 -2.62267,-9.04934 -5.5,-12.24267 m -39.20933,20.284 c 0.15866,-3.94133 0.98533,-7.34933 2.484,-10.22933 1.49733,-2.87734 3.37066,-5.224 5.61866,-7.036 2.24667,-1.81467 4.71067,-3.05734 7.39334,-3.728 2.67866,-0.668 5.28133,-0.808 7.80533,-0.41334 2.52133,0.39467 4.79067,1.38 6.80133,2.956 2.00934,1.57867 3.488,3.748 4.436,6.50534 l -34.53866,11.94533 z m 89.88799,31.34533 -0.58933,-6.97866 c -1.89333,2.05066 -4.14,3.70666 -6.744,4.96666 -2.6,1.26 -5.32,1.89334 -8.16,1.89334 -5.12667,0 -9.224,-1.18267 -12.30133,-3.54934 -3.07334,-2.36533 -5.16267,-5.22133 -6.26534,-8.57466 -1.10666,-3.35067 -1.22533,-6.86 -0.356,-10.52534 0.86534,-3.668 2.69867,-6.84133 5.50134,-9.52133 2.796,-2.68 6.54133,-4.496 11.23466,-5.44267 4.68934,-0.94666 10.34667,-0.392 16.97067,1.65734 l 0,-6.86 c 0,-3.54934 -1.164,-6.15067 -3.488,-7.80667 -2.32667,-1.65733 -5.144,-2.484 -8.456,-2.484 -3.07467,0 -6.192,0.652 -9.344,1.952 -3.15467,1.3 -5.992,2.81867 -8.51467,4.55333 l 1.41734,-8.39733 c 2.68133,-1.42 5.48133,-2.60267 8.39866,-3.54933 2.916,-0.94534 5.91334,-1.41867 8.988,-1.41867 5.04534,0 8.852,0.848 11.41467,2.54267 2.56133,1.69733 4.35467,3.964 5.38267,6.80133 1.02266,2.83867 1.556,6.05333 1.59466,9.63867 0.04,3.58933 0.06,7.27466 0.06,11.06 l 0,13.83733 c 0,4.49467 0.11867,9.06933 0.356,13.72 l -7.1,2.48533 z m -1.88933,-28.03333 c -0.792,-0.78667 -1.716,-1.47733 -2.78,-2.068 -1.06533,-0.592 -2.16933,-1.04533 -3.31333,-1.36 -1.144,-0.31467 -2.10934,-0.47467 -2.89734,-0.47467 -2.052,0 -4.08,0.29734 -6.09066,0.888 -2.01067,0.59067 -3.80534,1.47734 -5.38,2.66134 -1.58,1.18133 -2.86134,2.64266 -3.84667,4.37466 -0.98533,1.736 -1.47733,3.74667 -1.47733,6.03334 0,3.07466 1.024,5.54 3.07466,7.392 2.05067,1.85466 4.47467,2.97733 7.27467,3.372 2.79733,0.39333 5.65867,-0.0187 8.57467,-1.24267 2.91733,-1.22133 5.24533,-3.33067 6.97733,-6.328 0.15867,-0.23733 0.356,-0.60933 0.59333,-1.12267 0.23467,-0.51333 0.35334,-0.92666 0.35334,-1.244 0,-1.33866 0.0187,-2.72 0.06,-4.13866 0.0387,-1.42 0.0573,-2.79734 0.0573,-4.14 0,-0.94667 -0.39333,-1.81334 -1.18,-2.60267 m 46.48,19.98933 c -1.26133,0.39467 -2.56267,0.592 -3.90267,0.592 -2.052,0 -3.66666,-0.19733 -4.84933,-0.592 -1.18133,-0.39333 -2.112,-1.024 -2.78,-1.892 -0.67067,-0.868 -1.10667,-1.96933 -1.29867,-3.31333 -0.2,-1.33867 -0.29866,-2.91333 -0.29866,-4.72933 l 0,-68.48267 c -1.18,0.396 -2.384,0.75067 -3.608,1.06533 -1.22134,0.31467 -2.42267,0.67067 -3.60534,1.064 0,12.064 -0.04,24.01067 -0.12,35.83734 -0.0787,11.828 -0.0387,23.77466 0.12,35.83733 l 0.11867,0 c 0.47067,3.07733 1.51733,5.52133 3.13333,7.33467 1.61467,1.81333 3.54934,3.09466 5.796,3.844 2.24667,0.748 4.672,1.02266 7.27334,0.828 2.60266,-0.19734 5.164,-0.73067 7.68666,-1.59734 l 0.12,-7.21466 c -1.26266,0.552 -2.52533,1.02533 -3.78533,1.41866 m 42.46267,5.796 c -2.92,1.18134 -5.796,1.792 -8.636,1.832 -2.83734,0.0387 -5.40134,-0.492 -7.68667,-1.596 -2.28933,-1.10266 -4.14,-2.77866 -5.56,-5.02666 -1.41867,-2.24667 -2.128,-5.14534 -2.128,-8.692 l 0,-36.19334 -11.236,0 0.94533,-6.74266 10.17067,0 0,-13.36534 7.33333,-5.20266 0,18.45066 15.61467,0 0,6.74134 -15.61467,0 0,34.064 c 0,1.816 0.0987,3.39066 0.296,4.72933 0.19734,1.344 0.62934,2.44533 1.30134,3.31333 0.668,0.868 1.59733,1.49867 2.78,1.892 1.18266,0.39467 2.79733,0.592 4.84933,0.592 1.34,0 2.66267,-0.19733 3.96133,-0.592 1.30267,-0.39333 2.58267,-0.86666 3.844,-1.41866 l -0.23466,7.21466 z m 47.07333,1.42 0,-36.42933 c 0,-5.04533 -1.22534,-8.88933 -3.66667,-11.53333 -2.44667,-2.64 -5.32267,-4.13867 -8.63467,-4.49467 -3.312,-0.35333 -6.644,0.356 -9.99333,2.12933 -3.35333,1.776 -5.97467,4.55334 -7.86667,8.34 -0.15866,0.23467 -0.35466,0.67067 -0.59066,1.3 -0.23734,0.632 -0.35467,1.06534 -0.35467,1.30134 l 0,38.08533 -7.33333,1.30133 0,-83.504 c 1.26,-0.39333 2.50133,-0.74933 3.724,-1.064 1.224,-0.31466 2.42533,-0.66933 3.60933,-1.06533 l 0,35.484 c 2.048,-2.84 4.47333,-5.06533 7.27333,-6.68267 2.79734,-1.616 6.01067,-2.42533 9.63867,-2.42533 7.09733,0 12.45867,2.06933 16.08533,6.20933 3.628,4.14 5.44134,9.64 5.44134,16.5 l 0,35.24667 -7.332,1.30133 z m 29.332,24.01067 -7.216,-0.948 16.67733,-34.536 -24.72,-46.48267 7.57067,-0.70933 21.17066,39.504 19.16267,-39.62267 7.45067,0.828 -40.096,81.96667"
     inkscape:connector-curvature="0" /><path
     id="path18"
     style="fill:#ffffff;fill-opacity:1;fill-rule:nonzero;stroke:none"
     d="m 491.75465,299.76434 0,-7.21467 c -2.52267,2.524 -5.47867,4.43467 -8.86933,5.736 -3.39067,1.30134 -6.86,1.95067 -10.408,1.95067 -4.25867,0 -8.18,-0.76933 -11.76934,-2.30533 -3.58933,-1.53734 -6.68133,-3.66534 -9.28533,-6.38667 -2.60133,-2.72133 -4.65333,-5.89333 -6.14933,-9.52133 -1.49867,-3.62667 -2.24667,-7.52934 -2.24667,-11.70934 0,-4.25866 0.76933,-8.22 2.30533,-11.88666 1.53734,-3.66667 3.64534,-6.84133 6.32667,-9.52267 2.68133,-2.67733 5.856,-4.78933 9.524,-6.32666 3.66533,-1.53867 7.62667,-2.30667 11.88533,-2.30667 3.46934,0 6.80134,0.632 9.996,1.89333 3.192,1.26134 6.04934,3.07467 8.57467,5.44 l 0,-31.69866 c 1.26133,-0.31467 2.50133,-0.62934 3.72533,-0.94534 1.22,-0.31333 2.42534,-0.66933 3.608,-1.06533 l 0,84.92266 -7.21733,0.94667 z m 0,-37.96667 c 0,-0.47333 -0.13733,-1.06533 -0.41333,-1.77466 -0.276,-0.708 -0.49334,-1.26 -0.64934,-1.656 -1.42,-3.15067 -3.392,-5.596 -5.91333,-7.33333 -2.52533,-1.73334 -5.284,-2.83867 -8.28,-3.31067 -2.99867,-0.47467 -6.01467,-0.316 -9.048,0.472 -3.036,0.78933 -5.816,2.15067 -8.33867,4.08133 -2.52533,1.932 -4.57466,4.416 -6.14933,7.452 -1.58,3.03467 -2.368,6.56267 -2.368,10.58533 0,3.784 0.75067,7.13734 2.24933,10.05334 1.496,2.91733 3.44667,5.34266 5.85334,7.27333 2.40533,1.93467 5.10533,3.35333 8.104,4.25867 2.99466,0.908 5.94933,1.22133 8.86933,0.94533 2.916,-0.27467 5.67733,-1.16133 8.28,-2.66 2.60133,-1.49733 4.68933,-3.70667 6.268,-6.624 0.39333,-0.70933 0.74933,-1.43733 1.06533,-2.188 0.31334,-0.748 0.47067,-1.556 0.47067,-2.42267 l 0,-17.152 z m 64.63867,-13.06933 c -2.87867,-3.19333 -6.25067,-5.46 -10.112,-6.80133 -3.864,-1.33867 -7.96667,-1.77333 -12.30134,-1.30133 -4.33733,0.47333 -8.3,1.87466 -11.88666,4.19866 -3.588,2.328 -6.56534,5.58134 -8.93067,9.75734 -2.36533,4.18133 -3.54667,9.26666 -3.54667,15.25866 0,4.57333 0.788,8.71467 2.364,12.41733 1.57867,3.70934 3.70667,6.88267 6.388,9.524 2.67867,2.64267 5.75467,4.712 9.224,6.208 3.47067,1.49734 7.09867,2.30667 10.88134,2.424 3.784,0.12 7.57066,-0.492 11.356,-1.83333 3.784,-1.34 7.33333,-3.50667 10.644,-6.50533 l 0,-8.75067 c -2.99734,2.52267 -6.268,4.74933 -9.81734,6.68133 -3.54666,1.93467 -7.332,2.89734 -11.352,2.89734 -2.684,0 -5.20666,-0.432 -7.572,-1.3 -2.36533,-0.86667 -4.492,-2.06934 -6.38533,-3.608 -1.892,-1.53734 -3.50933,-3.388 -4.85067,-5.55734 -1.34133,-2.168 -2.32666,-4.55466 -2.95733,-7.156 l 44.35467,-14.312 c -0.78934,-4.96666 -2.62134,-9.04799 -5.5,-12.24133 m -39.20934,20.284 c 0.15734,-3.94267 0.98534,-7.35067 2.484,-10.23066 1.496,-2.87867 3.37067,-5.22134 5.61867,-7.03734 2.248,-1.81333 4.71067,-3.05466 7.392,-3.72533 2.68133,-0.67067 5.284,-0.808 7.80667,-0.41467 2.52266,0.396 4.78933,1.38 6.80133,2.956 2.01067,1.57867 3.488,3.74667 4.436,6.504 l -34.53867,11.948 z m 56.41734,17.74133 c 2.12933,1.81467 4.51466,3.312 7.15599,4.49334 2.64134,1.184 5.38134,1.77466 8.22134,1.77466 1.41866,0 2.856,-0.17733 4.316,-0.53066 1.45733,-0.35734 2.76,-0.928 3.90266,-1.71467 1.14134,-0.788 2.08934,-1.756 2.83734,-2.89733 0.75066,-1.144 1.12533,-2.54267 1.12533,-4.2 0,-2.28534 -0.72933,-4.09867 -2.188,-5.44267 -1.45867,-1.33867 -3.29333,-2.46267 -5.5,-3.368 -2.208,-0.90667 -4.59467,-1.77467 -7.156,-2.60267 -2.56267,-0.828 -4.94933,-1.852 -7.156,-3.076 -2.208,-1.22266 -4.04,-2.83866 -5.49866,-4.85066 -1.46134,-2.008 -2.18934,-4.67067 -2.18934,-7.98267 0,-4.09866 1.28,-7.452 3.844,-10.052 2.56133,-2.604 5.676,-4.33733 9.344,-5.20533 3.66533,-0.868 7.53067,-0.84667 11.592,0.06 4.05867,0.90533 7.628,2.74 10.704,5.49867 l -2.248,6.74133 c -1.97067,-1.65467 -4.16,-3.07333 -6.564,-4.25733 -2.40667,-1.18267 -4.90933,-1.77467 -7.50933,-1.77467 -1.42134,0 -2.84,0.15867 -4.25867,0.47333 -1.41867,0.316 -2.70267,0.82934 -3.84533,1.53867 -1.14267,0.70933 -2.06934,1.636 -2.77867,2.77867 -0.70933,1.144 -1.064,2.54266 -1.064,4.19866 0,2.20934 0.728,3.92267 2.188,5.14667 1.45733,1.224 3.28933,2.28533 5.5,3.192 2.20667,0.908 4.572,1.756 7.096,2.54266 2.52267,0.78934 4.88933,1.816 7.096,3.076 2.208,1.26267 4.04,2.91867 5.50133,4.968 1.45867,2.052 2.18667,4.72934 2.18667,8.04267 0,2.68133 -0.552,5.06667 -1.656,7.15467 -1.104,2.09066 -2.58267,3.86533 -4.43467,5.32266 -1.85466,1.46 -3.944,2.584 -6.268,3.37067 -2.32666,0.788 -4.712,1.18267 -7.156,1.18267 -3.472,0 -6.78266,-0.69067 -9.936,-2.06934 -3.15466,-1.37733 -5.99466,-3.212 -8.51333,-5.5 l 3.30934,-6.032 z m 55.53199,-57.12933 c -0.90933,0.712 -1.95333,1.06667 -3.136,1.06667 -1.104,0 -2.112,-0.37333 -3.01466,-1.124 -0.90667,-0.748 -1.36267,-1.83333 -1.36267,-3.252 0,-1.49733 0.456,-2.60267 1.36267,-3.312 0.90266,-0.70933 1.91066,-1.06533 3.01466,-1.06533 1.18267,0 2.22667,0.37466 3.136,1.124 0.904,0.75066 1.35734,1.83333 1.35734,3.25333 0,1.49733 -0.45334,2.60133 -1.35734,3.30933 m -6.328,69.90267 0,-56.89067 c 1.18134,-0.39333 2.384,-0.788 3.60534,-1.18133 1.224,-0.39467 2.42533,-0.788 3.608,-1.184 l 0,57.956 -7.21334,1.3 z m 49.556,-48.61067 c -1.02666,-0.948 -1.99333,-1.73466 -2.89733,-2.36533 -0.908,-0.62933 -2.11067,-0.94667 -3.60933,-0.94667 -1.88934,0 -3.82534,0.63067 -5.796,1.89334 -1.97067,1.26133 -3.74534,2.83866 -5.32,4.73066 -1.58,1.89334 -2.88,3.92267 -3.904,6.08933 -1.02667,2.172 -1.536,4.12267 -1.536,5.85467 l 0,32.05467 -7.33334,1.3 0,-57.48133 7.33334,-1.06534 0,12.30134 c 1.18,-2.128 2.81733,-4.25867 4.90666,-6.38667 2.08934,-2.12933 4.356,-3.804 6.80134,-5.028 2.44266,-1.22 4.96666,-1.77333 7.57066,-1.656 2.60134,0.12 5.044,1.36 7.332,3.728 l -3.548,6.97733 z m 56.83067,-2.188 c -2.88134,-3.19333 -6.25067,-5.46 -10.112,-6.80133 -3.86534,-1.33867 -7.96534,-1.77333 -12.30267,-1.30133 -4.33733,0.47333 -8.3,1.87466 -11.88533,4.19866 -3.58933,2.328 -6.56533,5.58134 -8.93067,9.75734 -2.36533,4.18133 -3.548,9.26666 -3.548,15.25866 0,4.57333 0.78534,8.71467 2.36534,12.41733 1.576,3.70934 3.70533,6.88267 6.38533,9.524 2.68133,2.64267 5.756,4.712 9.22667,6.208 3.47066,1.49734 7.09466,2.30667 10.88133,2.424 3.78533,0.12 7.56933,-0.492 11.356,-1.83333 3.784,-1.34 7.33333,-3.50667 10.644,-6.50533 l 0,-8.75067 c -2.99867,2.52267 -6.26934,4.74933 -9.816,6.68133 -3.54934,1.93467 -7.33334,2.89734 -11.35467,2.89734 -2.68267,0 -5.20533,-0.432 -7.57066,-1.3 -2.36534,-0.86667 -4.496,-2.06934 -6.38667,-3.608 -1.89333,-1.53734 -3.50933,-3.388 -4.84933,-5.55734 -1.34267,-2.168 -2.328,-4.55466 -2.95867,-7.156 l 44.356,-14.312 c -0.78934,-4.96666 -2.62267,-9.04799 -5.5,-12.24133 m -39.21067,20.284 c 0.15867,-3.94267 0.98534,-7.35067 2.48667,-10.23066 1.496,-2.87867 3.36933,-5.22134 5.616,-7.03734 2.248,-1.81333 4.712,-3.05466 7.392,-3.72533 2.68,-0.67067 5.28133,-0.808 7.808,-0.41467 2.52133,0.396 4.78933,1.38 6.8,2.956 2.01066,1.57867 3.488,3.74667 4.43466,6.504 l -34.53733,11.948 z m 56.41867,17.74133 c 2.128,1.81467 4.512,3.312 7.15466,4.49334 2.64134,1.184 5.38267,1.77466 8.22,1.77466 1.42,0 2.856,-0.17733 4.31734,-0.53066 1.45866,-0.35734 2.75866,-0.928 3.904,-1.71467 1.14266,-0.788 2.088,-1.756 2.84,-2.89733 0.748,-1.144 1.12266,-2.54267 1.12266,-4.2 0,-2.28534 -0.73066,-4.09867 -2.188,-5.44267 -1.46,-1.33867 -3.29466,-2.46267 -5.5,-3.368 -2.21066,-0.90667 -4.59466,-1.77467 -7.15733,-2.60267 -2.56267,-0.828 -4.94933,-1.852 -7.15467,-3.076 -2.208,-1.22266 -4.04266,-2.83866 -5.5,-4.85066 -1.46,-2.008 -2.188,-4.67067 -2.188,-7.98267 0,-4.09866 1.28,-7.452 3.844,-10.052 2.56267,-2.604 5.67734,-4.33733 9.344,-5.20533 3.66667,-0.868 7.528,-0.84667 11.59067,0.06 4.06,0.90533 7.62933,2.74 10.704,5.49867 l -2.24667,6.74133 c -1.97333,-1.65467 -4.16,-3.07333 -6.564,-4.25733 -2.40666,-1.18267 -4.91066,-1.77467 -7.512,-1.77467 -1.41866,0 -2.84,0.15867 -4.25733,0.47333 -1.42,0.316 -2.70133,0.82934 -3.844,1.53867 -1.14533,0.70933 -2.072,1.636 -2.78,2.77867 -0.70933,1.144 -1.064,2.54266 -1.064,4.19866 0,2.20934 0.728,3.92267 2.188,5.14667 1.45867,1.224 3.292,2.28533 5.5,3.192 2.20667,0.908 4.57333,1.756 7.09733,2.54266 2.52134,0.78934 4.888,1.816 7.09467,3.076 2.20933,1.26267 4.04267,2.91867 5.5,4.968 1.45867,2.052 2.188,4.72934 2.188,8.04267 0,2.68133 -0.552,5.06667 -1.65467,7.15467 -1.104,2.09066 -2.584,3.86533 -4.43466,5.32266 -1.85467,1.46 -3.944,2.584 -6.26934,3.37067 -2.328,0.788 -4.71466,1.18267 -7.156,1.18267 -3.47066,0 -6.78133,-0.69067 -9.93466,-2.06934 -3.156,-1.37733 -5.99334,-3.212 -8.51734,-5.5 l 3.31334,-6.032"
     inkscape:connector-curvature="0" /><path
     id="path20"
     style="fill:#ffffff;fill-opacity:1;fill-rule:nonzero;stroke:none"
     d="m 189.95999,28.92968 c -87.25066,0 -158.23466,70.98533 -158.23466,158.23733 0,87.24933 70.984,158.232 158.23466,158.232 87.25067,0 158.23466,-70.98267 158.23466,-158.232 0,-87.252 -70.98399,-158.23733 -158.23466,-158.23733 z m 0,326.21999 c -92.62666,0 -167.98266,-75.35866 -167.98266,-167.98266 0,-92.628 75.356,-167.98666 167.98266,-167.98666 92.62667,0 167.984,75.35866 167.984,167.98666 0,92.624 -75.35733,167.98266 -167.984,167.98266"
     inkscape:connector-curvature="0" /><path
     id="path22"
     style="fill:#ffffff;fill-opacity:1;fill-rule:nonzero;stroke:none"
     d="m 161.36266,212.34834 0,-53.384 c 0,-7.392 -1.79333,-13.02533 -5.372,-16.89733 -3.584,-3.87067 -7.80133,-6.06667 -12.65333,-6.58667 -4.85334,-0.52133 -9.736,0.52 -14.64534,3.11867 -4.91333,2.60133 -8.75466,6.67333 -11.52666,12.22 -0.23334,0.34667 -0.52,0.984 -0.86667,1.90667 -0.348,0.92666 -0.52,1.55866 -0.52,1.90533 l 0,55.812 -10.74667,1.90533 0,-122.36666 c 1.84667,-0.576 3.668,-1.09467 5.46134,-1.56 1.788,-0.46 3.55066,-0.98 5.28533,-1.55867 l 0,51.99733 c 3.004,-4.16 6.55467,-7.42266 10.65867,-9.79333 4.1,-2.36667 8.80933,-3.55333 14.12533,-3.55333 10.4,0 18.25733,3.03333 23.57333,9.1 5.312,6.06666 7.97334,14.12533 7.97334,24.17733 l 0,51.652 -10.74667,1.90533 z m 102.95333,0.34667 0,-10.57333 c -3.7,3.70133 -8.032,6.5 -12.99867,8.40666 -4.96933,1.90667 -10.052,2.86 -15.252,2.86 -6.24133,0 -11.98933,-1.12533 -17.24666,-3.38 -5.25867,-2.25333 -9.792,-5.372 -13.60667,-9.36 -3.81333,-3.984 -6.81867,-8.636 -9.01333,-13.95066 -2.196,-5.31334 -3.292,-11.032 -3.292,-17.15867 0,-6.24133 1.12666,-12.04667 3.38133,-17.42 2.252,-5.37333 5.34133,-10.024 9.27067,-13.952 3.92666,-3.928 8.58,-7.02133 13.95333,-9.272 5.37333,-2.25467 11.17867,-3.38133 17.41867,-3.38133 5.084,0 9.968,0.92666 14.64533,2.772 4.68,1.85066 8.868,4.50666 12.56667,7.97333 l 0,-46.44933 c 1.848,-0.46133 3.668,-0.92267 5.46133,-1.388 1.78933,-0.46 3.552,-0.98 5.28533,-1.55867 l 0,124.44667 -10.57333,1.38533 z m 0,-55.636 c 0,-0.692 -0.20267,-1.56 -0.60667,-2.6 -0.40533,-1.04133 -0.72266,-1.84667 -0.95333,-2.42533 -2.07867,-4.62134 -4.96933,-8.204 -8.66533,-10.748 -3.7,-2.53867 -7.74267,-4.16 -12.13334,-4.852 -4.392,-0.69467 -8.81333,-0.46134 -13.25866,0.692 -4.44934,1.15733 -8.52267,3.14933 -12.22,5.98133 -3.7,2.832 -6.70134,6.47067 -9.012,10.91867 -2.31334,4.44933 -3.46667,9.61866 -3.46667,15.51333 0,5.54533 1.09733,10.45867 3.29333,14.732 2.192,4.276 5.052,7.83067 8.57867,10.65867 3.524,2.83333 7.48133,4.91333 11.87333,6.24 4.39067,1.33066 8.72267,1.792 13,1.38666 4.27334,-0.40266 8.31867,-1.704 12.13067,-3.9 3.81333,-2.196 6.87467,-5.42933 9.188,-9.70533 0.576,-1.04133 1.096,-2.108 1.56,-3.20667 0.46,-1.09733 0.692,-2.28133 0.692,-3.55333 l 0,-25.132"
     inkscape:connector-curvature="0" /><path
     id="path24"
     style="fill:#ffffff;fill-opacity:1;fill-rule:nonzero;stroke:none"
     d="m 104.35733,242.22434 c 7.27466,9.36934 15.52666,17.23733 24.75733,23.60533 9.23067,6.36134 18.98933,11.08267 29.268,14.16134 10.28133,3.07466 20.80666,4.616 31.57733,4.616 10.76933,0 21.296,-1.57334 31.576,-4.72134 10.28133,-3.148 20.03733,-7.86933 29.27067,-14.16133 9.23066,-6.296 17.48266,-14.13066 24.75733,-23.5 l 6.29333,8.39334 c -7.41333,10.34799 -16.04933,19.01866 -25.91066,26.01466 -9.86134,6.99333 -20.38934,12.204 -31.57734,15.632 -11.192,3.42533 -22.66,5.14 -34.40933,5.14 -11.748,0 -23.22,-1.71467 -34.408,-5.14 -11.19333,-3.428 -21.71733,-8.63867 -31.57733,-15.632 -9.86133,-6.996 -18.49733,-15.66667 -25.91067,-26.01466 l 6.29334,-8.39334"
     inkscape:connector-curvature="0" /></svg>